<?xml version="1.0" standalone="no"?>
<!DOCTYPE svg PUBLIC "-//W3C//DTD SVG 20010904//EN"
 "http://www.w3.org/TR/2001/REC-SVG-20010904/DTD/svg10.dtd">
<svg version="1.0" xmlns="http://www.w3.org/2000/svg"
 width="972.000000pt" height="590.000000pt" viewBox="0 0 972.000000 590.000000"
 preserveAspectRatio="xMidYMid meet">

<g transform="translate(0.000000,590.000000) scale(0.100000,-0.100000)"
fill="#FFFFFF" stroke="none">
<path d="M596 5755 c-179 -49 -323 -196 -371 -376 -19 -70 -19 -229 0 -299 49
-183 209 -342 383 -379 76 -16 8408 -16 8484 0 82 18 166 65 239 136 110 106
159 226 159 393 0 52 -7 120 -15 150 -48 182 -194 327 -376 375 -79 21 -8427
21 -8503 0z"/>
<path d="M596 3475 c-179 -49 -323 -196 -371 -376 -19 -70 -19 -229 0 -299 49
-183 209 -342 383 -379 76 -16 8408 -16 8484 0 82 18 166 65 239 136 110 106
159 226 159 393 0 52 -7 120 -15 150 -48 182 -194 327 -376 375 -79 21 -8427
21 -8503 0z"/>
<path d="M596 1195 c-179 -49 -323 -196 -371 -376 -19 -70 -19 -229 0 -299 49
-183 209 -342 383 -379 76 -16 8408 -16 8484 0 82 18 166 65 239 136 110 106
159 226 159 393 0 52 -7 120 -15 150 -48 182 -194 327 -376 375 -79 21 -8427
21 -8503 0z"/>
</g>
</svg>
