<?xml version="1.0" standalone="no"?>
<!DOCTYPE svg PUBLIC "-//W3C//DTD SVG 20010904//EN"
 "http://www.w3.org/TR/2001/REC-SVG-20010904/DTD/svg10.dtd">
<svg version="1.0" xmlns="http://www.w3.org/2000/svg"
 width="900.000000pt" height="400.000000pt" viewBox="0 0 900.000000 400.000000"
 preserveAspectRatio="xMidYMid meet">

<g transform="translate(0.000000,400.000000) scale(0.100000,-0.100000)"
fill="#FFFFFF" stroke="none">
<path d="M1287 3583 c-5 -9 -787 -3135 -787 -3146 0 -4 154 -6 342 -5 l343 3
172 685 c94 377 172 690 173 695 1 6 5 1 10 -11 4 -11 11 -92 14 -180 4 -87
11 -238 16 -334 5 -96 14 -283 20 -415 6 -132 13 -286 16 -343 l6 -102 361 2
361 3 393 1570 c216 864 393 1573 393 1578 0 4 -154 6 -342 5 l-343 -3 -157
-625 c-186 -740 -188 -750 -198 -750 -4 0 -10 48 -13 108 -4 59 -11 163 -16
232 -6 69 -15 193 -21 275 -6 83 -15 209 -20 280 -5 72 -15 204 -20 295 -6 91
-13 171 -15 178 -3 9 -81 12 -344 12 -187 0 -342 -3 -344 -7z"/>
<path d="M3061 2025 c-215 -861 -391 -1572 -391 -1580 0 -13 85 -15 710 -15
l710 0 5 23 c2 12 36 149 75 304 38 155 70 287 70 293 0 7 -98 10 -290 10
-242 0 -292 2 -296 14 -7 18 156 669 170 678 6 4 122 8 258 8 l246 0 11 33
c33 108 133 537 128 551 -6 14 -34 16 -253 16 l-246 0 6 23 c3 12 35 141 72
287 36 146 70 271 76 278 8 9 75 12 274 12 165 0 265 4 269 10 6 10 155 597
155 612 0 4 -308 8 -684 8 l-684 0 -391 -1565z"/>
<path d="M5116 3581 c-7 -11 -786 -3125 -786 -3140 0 -8 219 -11 710 -11 l709
0 10 38 c40 152 141 564 141 577 0 13 -36 15 -289 15 -186 0 -292 4 -296 10
-7 12 153 660 167 675 5 6 112 12 260 15 l251 5 69 270 c38 149 67 281 66 295
l-3 25 -248 3 c-230 2 -248 4 -243 20 3 9 35 139 72 287 37 149 71 276 77 283
7 9 75 12 278 12 148 0 269 2 269 4 0 2 34 139 75 303 41 164 75 304 75 311 0
9 -143 12 -679 12 -401 0 -682 -4 -685 -9z"/>
<path d="M6777 3583 c-5 -9 -787 -3136 -787 -3148 0 -12 1329 1 1410 14 163
27 316 93 409 177 118 106 190 265 290 644 43 165 313 1241 349 1397 55 233
74 357 70 468 -3 94 -6 107 -41 178 -88 178 -253 244 -662 266 -225 13 -1031
15 -1038 4z m800 -543 c43 0 90 -42 99 -86 4 -20 0 -70 -10 -117 -27 -138
-374 -1516 -407 -1617 -52 -160 -85 -205 -172 -234 -60 -20 -137 -21 -137 -3
0 19 508 2046 516 2059 4 6 22 8 43 4 20 -3 50 -6 68 -6z"/>
</g>
</svg>
