<?xml version="1.0" standalone="no"?>
<!DOCTYPE svg PUBLIC "-//W3C//DTD SVG 20010904//EN"
 "http://www.w3.org/TR/2001/REC-SVG-20010904/DTD/svg10.dtd">
<svg version="1.0" xmlns="http://www.w3.org/2000/svg"
 width="624.000000pt" height="598.000000pt" viewBox="0 0 624.000000 598.000000"
 preserveAspectRatio="xMidYMid meet">

<g transform="translate(0.000000,598.000000) scale(0.100000,-0.100000)"
fill="#FFFFFF" stroke="none">
<path d="M2460 5884 c-595 -68 -1085 -299 -1485 -699 -362 -362 -584 -795
-678 -1320 -29 -164 -31 -586 -4 -740 97 -550 307 -965 677 -1335 149 -149
230 -217 365 -307 341 -226 684 -351 1095 -398 579 -65 1206 106 1673 456 44
34 85 63 92 65 7 3 341 -324 743 -726 541 -541 742 -736 774 -750 85 -39 214
-15 275 51 61 67 80 185 43 267 -14 32 -210 234 -750 774 -402 402 -729 737
-726 743 2 7 31 48 65 92 350 467 522 1096 455 1673 -52 459 -202 839 -478
1210 -91 123 -334 365 -459 459 -278 207 -588 355 -897 428 -183 42 -286 54
-515 58 -126 2 -246 1 -265 -1z m525 -498 c424 -72 824 -287 1104 -592 193
-210 334 -449 420 -712 49 -149 76 -289 92 -472 33 -389 -83 -834 -305 -1174
-326 -500 -842 -812 -1446 -873 -142 -14 -184 -15 -305 -4 -468 41 -856 212
-1190 523 -254 237 -450 568 -544 918 -42 158 -56 276 -56 480 0 301 42 509
159 778 141 326 399 631 711 839 216 144 520 259 775 292 47 6 96 13 110 15
55 9 390 -3 475 -18z"/>
</g>
</svg>
